<svg xmlns="http://www.w3.org/2000/svg" width="248.31" height="58.416" viewBox="0 0 248.31 58.416">
  <g id="Group_356" data-name="Group 356" transform="translate(-70 -63.616)">
    <rect id="Rectangle_9" data-name="Rectangle 9" width="84.418" height="58.416" transform="translate(70 63.616)"/>
    <g id="Rectangle_10" data-name="Rectangle 10" transform="translate(153.932 63.616)" fill="none" stroke="#000" stroke-miterlimit="10" stroke-width="2">
      <rect width="164.377" height="58.416" stroke="none"/>
      <rect x="1" y="1" width="162.377" height="56.416" fill="none"/>
    </g>
    <path id="Path_9" data-name="Path 9" d="M20.049,32.333,16.614,22.167H7.3L3.672,32.333H7.2v.894H0v-.894H2.213L14.213,0h3.859L29.934,32.333H32.1v.894H16.709v-.894ZM12.143,8.8,7.719,21.132h8.519Z" transform="translate(74.702 75.788)" fill="#e8e8e8"/>
    <path id="Path_10" data-name="Path 10" d="M15.719,1.788q-1.743,0-3.059,2.259a10.456,10.456,0,0,0-1.318,5.365V22.026h3.341v.847H0v-.847H2.589V1.318H0V.471H11.343V4.989A6.382,6.382,0,0,1,13.7,1.294,6.454,6.454,0,0,1,17.649,0a5.189,5.189,0,0,1,3.6,1.247,4.5,4.5,0,0,1,1.388,3.53A5.286,5.286,0,0,1,21.6,8.283a3.93,3.93,0,0,1-3.177,1.224A3.616,3.616,0,0,1,15.272,8.1a4.351,4.351,0,0,1-.258-3.906h1.694Q17.883,1.788,15.719,1.788Z" transform="translate(107.552 86.143)" fill="#e8e8e8"/>
    <path id="Path_11" data-name="Path 11" d="M2.589,23.909V9.083H0V8.236H2.589V2.165L11.342,0V8.236h6.118v.847H11.342V24.944a8.725,8.725,0,0,0,.447,3.247,1.811,1.811,0,0,0,1.86,1.036,3.052,3.052,0,0,0,2.47-1.412,8.176,8.176,0,0,0,1.388-3.859l.8.094A9.135,9.135,0,0,1,16.237,29.2q-1.694,1.906-5.6,1.906A9.832,9.832,0,0,1,4.66,29.556Q2.588,28,2.589,23.909Z" transform="translate(130.613 78.377)" fill="#e8e8e8"/>
    <path id="Path_12" data-name="Path 12" d="M32.616,15.908q0,9.7-5.459,13.507-5.037,3.53-13.837,3.53H0v-.894H3.107V.894H0V0H14.543Q23.58,0,28.1,3.695T32.616,15.908ZM12.285,32.051h1.788q4.752,0,6.8-3.365t2.047-11.272v-2.73q0-10.59-4.048-12.754A11.731,11.731,0,0,0,13.414.894h-1.13Z" transform="translate(161.392 76.071)"/>
    <path id="Path_13" data-name="Path 13" d="M32.616,15.908q0,9.7-5.46,13.507-5.036,3.53-13.837,3.53H0v-.894H3.106V.894H0V0H14.543Q23.579,0,28.1,3.695T32.616,15.908ZM12.284,32.051h1.788q4.753,0,6.8-3.365T22.92,17.414v-2.73q0-10.59-4.048-12.754A11.737,11.737,0,0,0,13.413.894h-1.13Z" transform="translate(196.926 76.071)"/>
    <path id="Path_14" data-name="Path 14" d="M0,0H14.355V.894H11.766V32.051h2.589v.894H0v-.894H2.589V.894H0Z" transform="translate(232.647 76.071)"/>
    <path id="Path_15" data-name="Path 15" d="M16.9.941q-7.3,0-7.3,14.072v3.718q0,6.683,1.93,10.472t5.695,3.789q5.176,0,9.507-10.072h.847l-.329,10.5h-.518a2.849,2.849,0,0,0-.518-.729.988.988,0,0,0-.682-.212,27.992,27.992,0,0,0-3.412.729,25.123,25.123,0,0,1-6.024.73q-7.671,0-11.884-4.142T0,17.343Q0,9.037,4.4,4.518T16.237,0a21.868,21.868,0,0,1,5.624.729,22.747,22.747,0,0,0,3.225.73,1.026,1.026,0,0,0,.705-.212,2.823,2.823,0,0,0,.518-.73h.518L27.2,10.731h-.847A28.594,28.594,0,0,0,22,3.459,6.691,6.691,0,0,0,16.9.941Z" transform="translate(250.108 75.553)"/>
    <path id="Path_16" data-name="Path 16" d="M28.239,0l.47,11.813h-.893q-2.072-6.258-3.671-8.542A5.29,5.29,0,0,0,19.531.988h-.564V31.957h4v.988H5.789v-.988h4V.988H9.178A5.339,5.339,0,0,0,4.518,3.365,35.411,35.411,0,0,0,.894,11.813H0L.47,0Z" transform="translate(280.935 76.071)"/>
  </g>
</svg>
