<?xml version="1.0" encoding="utf-8"?>
<!-- Generator: Adobe Illustrator 25.0.1, SVG Export Plug-In . SVG Version: 6.00 Build 0)  -->
<svg version="1.1" id="圖層_1" xmlns="http://www.w3.org/2000/svg" xmlns:xlink="http://www.w3.org/1999/xlink" x="0px" y="0px"
	 viewBox="0 0 305 71.8" style="enable-background:new 0 0 305 71.8;" xml:space="preserve">
<style type="text/css">
	.st0{fill:#81FC4D;}
</style>
<g id="Group_92" transform="translate(-61.105 -364.105)">
	<g id="Rectangle_10" transform="translate(164.199 364.105)">
		<rect x="0" y="0" width="201.9" height="71.8"/>
		<path class="st0" d="M0.6,0L0.6,0l-103.7,0v71.8H0v0h201.9V0H0.6z M199.9,69.8H2V2h197.9V69.8z"/>
	</g>
	<path id="Path_9" d="M91.5,418.8l-4.2-12.5H75.8l-4.5,12.5h4.3v1.1h-8.8v-1.1h2.7l14.7-39.7h4.7l14.6,39.7h2.7v1.1H87.4v-1.1H91.5z
		 M81.8,389.9L76.4,405h10.5L81.8,389.9z"/>
	<path id="Path_10" d="M126.5,394c-1.4,0-2.7,0.9-3.8,2.8c-1.1,2-1.7,4.3-1.6,6.6v15.5h4.1v1h-18v-1h3.2v-25.4h-3.2v-1h13.9v5.5
		c0.4-1.8,1.4-3.4,2.9-4.5c1.4-1.1,3.1-1.6,4.9-1.6c1.6-0.1,3.2,0.5,4.4,1.5c1.2,1.1,1.8,2.7,1.7,4.3c0.1,1.5-0.3,3.1-1.3,4.3
		c-1,1.1-2.4,1.6-3.9,1.5c-1.5,0.1-3-0.5-3.9-1.7c-0.8-1.2-0.9-2.8-0.3-4.8h2.1C128.7,395,128.3,394,126.5,394z"/>
	<path id="Path_11" d="M138.7,411.6v-18.2h-3.2v-1h3.2v-7.5l10.8-2.7v10.1h7.5v1h-7.5v19.5c-0.1,1.4,0.1,2.7,0.5,4
		c0.4,0.9,1.3,1.4,2.3,1.3c1.2,0,2.4-0.7,3-1.7c1-1.4,1.5-3,1.7-4.7l1,0.1c-0.2,2.3-1.1,4.5-2.5,6.3c-1.4,1.6-3.7,2.3-6.9,2.3
		s-5.6-0.6-7.3-1.9C139.6,417.3,138.7,415,138.7,411.6z"/>
	<path id="Path_12" class="st0" d="M213.4,398.9c0,7.9-2.2,13.5-6.7,16.6c-4.1,2.9-9.8,4.3-17,4.3h-16.4v-1.1h3.8v-38.3h-3.8v-1.1
		h17.9c7.4,0,12.9,1.5,16.6,4.5C211.6,387,213.4,392,213.4,398.9z M188.5,418.8h2.2c3.9,0,6.7-1.4,8.4-4.1c1.7-2.8,2.5-7.4,2.5-13.8
		v-3.4c0-8.7-1.7-13.9-5-15.7c-2.1-1-4.4-1.4-6.7-1.3h-1.4L188.5,418.8z"/>
	<path id="Path_13" class="st0" d="M257.1,398.9c0,7.9-2.2,13.5-6.7,16.6c-4.1,2.9-9.8,4.3-17,4.3H217v-1.1h3.8v-38.3H217v-1.1h17.9
		c7.4,0,12.9,1.5,16.6,4.5C255.2,387,257.1,392,257.1,398.9z M232.1,418.8h2.2c3.9,0,6.7-1.4,8.4-4.1c1.7-2.8,2.5-7.4,2.5-13.8v-3.4
		c0-8.7-1.7-13.9-5-15.7c-2.1-1-4.4-1.4-6.7-1.3h-1.4L232.1,418.8z"/>
	<path id="Path_14" class="st0" d="M260.9,379.4h17.6v1.1h-3.2v38.3h3.2v1.1h-17.6v-1.1h3.2v-38.3h-3.2V379.4z"/>
	<path id="Path_15" class="st0" d="M303.1,379.9c-6,0-9,5.8-9,17.3v4.6c0,5.5,0.8,9.8,2.4,12.9c1.6,3.1,3.9,4.7,7,4.7
		c4.2,0,8.1-4.1,11.7-12.4h1l-0.4,12.9h-0.6c-0.2-0.3-0.4-0.6-0.6-0.9c-0.2-0.2-0.5-0.3-0.8-0.3c-1.4,0.2-2.8,0.5-4.2,0.9
		c-2.4,0.6-4.9,0.9-7.4,0.9c-6.3,0-11.1-1.7-14.6-5.1s-5.2-8.5-5.2-15.3c0-6.8,1.8-12.1,5.4-15.8c3.6-3.7,8.4-5.6,14.5-5.5
		c2.3,0,4.7,0.3,6.9,0.9c1.3,0.4,2.6,0.7,4,0.9c0.3,0,0.6-0.1,0.9-0.3c0.3-0.3,0.5-0.6,0.6-0.9h0.6l0.5,12.5h-1
		c-1.3-3.2-3.1-6.2-5.3-8.9C307.8,381.1,305.5,380,303.1,379.9z"/>
	<path id="Path_16" class="st0" d="M354.9,379.4l0.6,14.5h-1.1c-1.7-5.1-3.2-8.6-4.5-10.5c-1.3-1.9-3.4-2.9-5.7-2.8h-0.7v38h4.9v1.2
		h-21.1v-1.2h4.9v-38h-0.8c-2.3-0.1-4.5,1-5.7,2.9c-1.4,1.9-2.8,5.4-4.5,10.4h-1.1l0.6-14.5H354.9z"/>
</g>
</svg>
