<?xml version="1.0" encoding="utf-8"?>
<!-- Generator: Adobe Illustrator 25.0.1, SVG Export Plug-In . SVG Version: 6.00 Build 0)  -->
<svg version="1.1" xmlns="http://www.w3.org/2000/svg" xmlns:xlink="http://www.w3.org/1999/xlink" x="0px" y="0px"
	 viewBox="0 0 305 71.8" style="enable-background:new 0 0 305 71.8;" xml:space="preserve">
<style type="text/css">
	.st0{fill:#FFFFFF;}
</style>
<g id="圖層_2">
</g>
<g id="圖層_1">
	<g>
		<path class="st0" d="M103.7,0L103.7,0H0v71.8h103.1l0,0H305V0H103.7z M45.2,55.8H26.3v-1.1h4.1l-4.2-12.5H14.7l-4.5,12.5h4.3v1.1
			H5.8v-1.1h2.7L23.2,15H28l14.6,39.7h2.7L45.2,55.8L45.2,55.8z M73.9,33.5c0.1,1.5-0.3,3.1-1.3,4.3c-1,1.1-2.4,1.6-3.9,1.5
			c-1.5,0.1-3-0.5-3.9-1.7c-0.8-1.2-0.9-2.8-0.3-4.8h2.1c1-2,0.6-2.9-1.2-2.9c-1.4,0-2.7,0.9-3.8,2.8c-1.1,2-1.7,4.3-1.6,6.6v15.5
			h4.1v1h-18v-1h3.2V29.3h-3.2v-1H60v5.5c0.4-1.8,1.4-3.4,2.9-4.5c1.4-1.1,3.1-1.6,4.9-1.6c1.6-0.1,3.2,0.5,4.4,1.5
			C73.4,30.3,74,31.9,73.9,33.5z M94.4,54c-1.4,1.6-3.7,2.3-6.9,2.3s-5.6-0.6-7.3-1.9c-1.7-1.3-2.5-3.6-2.5-6.9V29.3h-3.2v-1h3.2
			v-7.5l10.8-2.7v10.1H96v1h-7.5v19.5c-0.1,1.4,0.1,2.7,0.5,4c0.4,0.9,1.3,1.4,2.3,1.3c1.2,0,2.4-0.7,3-1.7c1-1.4,1.5-3,1.7-4.7
			l1,0.1C96.8,50,95.9,52.2,94.4,54z M303,69.8H105.1V2H303V69.8z"/>
		<polygon class="st0" points="15.3,40.9 25.7,40.9 20.7,25.8 		"/>
	</g>
	<path id="Path_12" class="st0" d="M152.3,34.8c0,7.9-2.2,13.5-6.7,16.6c-4.1,2.9-9.8,4.3-17,4.3h-16.4v-1.1h3.8V16.4h-3.8v-1.1
		h17.9c7.4,0,12.9,1.5,16.6,4.5C150.5,22.9,152.3,27.9,152.3,34.8z M127.3,54.7h2.2c3.9,0,6.7-1.4,8.4-4.1c1.7-2.8,2.5-7.4,2.5-13.8
		v-3.4c0-8.7-1.7-13.9-5-15.7c-2.1-1-4.4-1.4-6.7-1.3h-1.4L127.3,54.7z"/>
	<path id="Path_13" class="st0" d="M196,34.8c0,7.9-2.2,13.5-6.7,16.6c-4.1,2.9-9.8,4.3-17,4.3h-16.4v-1.1h3.8V16.4h-3.8v-1.1h17.9
		c7.4,0,12.9,1.5,16.6,4.5C194.1,22.9,196,27.9,196,34.8z M171,54.7h2.2c3.9,0,6.7-1.4,8.4-4.1c1.7-2.8,2.5-7.4,2.5-13.8v-3.4
		c0-8.7-1.7-13.9-5-15.7c-2.1-1-4.4-1.4-6.7-1.3H171V54.7z"/>
	<path id="Path_14" class="st0" d="M199.8,15.3h17.6v1.1h-3.2v38.3h3.2v1.1h-17.6v-1.1h3.2V16.4h-3.2V15.3z"/>
	<path id="Path_15" class="st0" d="M242,15.8c-6,0-9,5.8-9,17.3v4.6c0,5.5,0.8,9.8,2.4,12.9c1.6,3.1,3.9,4.7,7,4.7
		c4.2,0,8.1-4.1,11.7-12.4h1l-0.4,12.9h-0.6c-0.2-0.3-0.4-0.6-0.6-0.9c-0.2-0.2-0.5-0.3-0.8-0.3c-1.4,0.2-2.8,0.5-4.2,0.9
		c-2.4,0.6-4.9,0.9-7.4,0.9c-6.3,0-11.1-1.7-14.6-5.1s-5.2-8.5-5.2-15.3s1.8-12.1,5.4-15.8c3.6-3.7,8.4-5.6,14.5-5.5
		c2.3,0,4.7,0.3,6.9,0.9c1.3,0.4,2.6,0.7,4,0.9c0.3,0,0.6-0.1,0.9-0.3c0.3-0.3,0.5-0.6,0.6-0.9h0.6l0.5,12.5h-1
		c-1.3-3.2-3.1-6.2-5.3-8.9C246.7,17,244.4,15.9,242,15.8z"/>
	<path id="Path_16" class="st0" d="M293.8,15.3l0.6,14.5h-1.1c-1.7-5.1-3.2-8.6-4.5-10.5s-3.4-2.9-5.7-2.8h-0.7v38h4.9v1.2h-21.1
		v-1.2h4.9v-38h-0.8c-2.3-0.1-4.5,1-5.7,2.9c-1.4,1.9-2.8,5.4-4.5,10.4H259l0.6-14.5C259.6,15.3,293.8,15.3,293.8,15.3z"/>
</g>
</svg>
