<svg xmlns="http://www.w3.org/2000/svg" viewBox="0 0 345.26 344.99"><defs><style>.cls-1{fill:#fff;}</style></defs><g id="圖層_2" data-name="圖層 2"><g id="圖層_1-2" data-name="圖層 1"><path class="cls-1" d="M110.92,25.86l-.39-.93A159.3,159.3,0,0,1,157.6,13.11l-5.51-4.25.61-.79,7.55,5.81L159,14A157.94,157.94,0,0,0,110.92,25.86Z"/><path class="cls-1" d="M317.17,239.58l.54-1.17a158.06,158.06,0,0,0,13.23-47.68l1,.11a158.78,158.78,0,0,1-12.79,46.82l6.4-2.72.39.92Z"/><path class="cls-1" d="M79.57,302.94A158.85,158.85,0,0,1,44.84,269L44.11,276l-1-.1,1-9.47.77,1a157.85,157.85,0,0,0,35.28,34.71Z"/><path class="cls-1" d="M181.21,0l.68,0,9.19,23a7.64,7.64,0,0,0,1,1.78,3.81,3.81,0,0,0,1.34,1.05,5.08,5.08,0,0,0,1.81.4l.67,0,0,.72L181,26.23l0-.71,1.94.1a4.49,4.49,0,0,0,2.15-.29,1.33,1.33,0,0,0,.73-1.19,3.78,3.78,0,0,0-.2-1.26c-.16-.5-.5-1.41-1-2.73,0-.07-.08-.2-.14-.37s-.14-.35-.22-.51l-.37-1L173,17.76l-.92,1.87a5.07,5.07,0,0,0-.5,1.95,3.38,3.38,0,0,0,.38,1.69,3.16,3.16,0,0,0,1.16,1.31A3.55,3.55,0,0,0,174,25a6,6,0,0,0,1.12.2l0,.71-10.46-.53,0-.71a6.72,6.72,0,0,0,1.83-.32,6.47,6.47,0,0,0,1.54-.84c1.35-.94,2.72-2.76,4.09-5.48ZM179,5.91,173.35,17.1l10.2.51Z"/><path class="cls-1" d="M216.84,19.61,211.29,18l-2,6.9a4.8,4.8,0,0,0,.13,3.7,4.8,4.8,0,0,0,3.06,2.09l.72.21-.2.69-15.58-4.51.2-.69.67.19a4.8,4.8,0,0,0,3.7-.12,4.81,4.81,0,0,0,2.09-3.06L208.23,9a4.78,4.78,0,0,0-.11-3.71A4.84,4.84,0,0,0,205,3.25l-.67-.19.19-.65L223.7,8a27.72,27.72,0,0,1,6,2.34,7.79,7.79,0,0,1,3,3,6,6,0,0,1,.69,2.15,5.54,5.54,0,0,1-.15,2.2,5.3,5.3,0,0,1-4.2,3.65,13.39,13.39,0,0,1-3.23.19A24.64,24.64,0,0,1,222,21c-.95-.2-2.38-.58-4.28-1.13l0,.07a30.52,30.52,0,0,0,2.12,2.26,17.57,17.57,0,0,0,2,1.69,24.08,24.08,0,0,0,2.43,1.52l.33,1.05c.22.68.39,1.19.5,1.52s.23.73.37,1.16c.37,1.2.74,2.25,1.12,3.15a10.74,10.74,0,0,0,1,2A6.15,6.15,0,0,0,230.64,36l.69.2-.2.69-9.26-2.68Zm-5.36-2.26,7,2a12.06,12.06,0,0,0,4.27.57,4.89,4.89,0,0,0,2.92-1.16,6.2,6.2,0,0,0,1.71-3q1.64-5.62-5.53-7.69l-7.13-2.07Z"/><path class="cls-1" d="M244.26,15.1,270.5,29.91l-6.41,11.35-.53-.25a17,17,0,0,0,1.57-8.77,8.94,8.94,0,0,0-4.54-7.15l-1.17-.66-9.65,17.09c-1.53,2.72-.94,4.83,1.76,6.36l3.38,1.91-.36.62L235,39.38l.36-.62,3.34,1.89q4.08,2.3,6.37-1.78l9.65-17.09L253.28,21a8.63,8.63,0,0,0-8.61.08,15.88,15.88,0,0,0-4.36,3.33,30.39,30.39,0,0,0-1.9,2.39l-.56-.32Z"/><path class="cls-1" d="M276.44,33.91,289,45.44a22.88,22.88,0,0,1,4.64,5.68A12.85,12.85,0,0,1,295.33,57a13.3,13.3,0,0,1-.67,5.08,11.64,11.64,0,0,1-2.48,4.24A11.3,11.3,0,0,1,288,69.25a11.64,11.64,0,0,1-5,.77,14.82,14.82,0,0,1-5.34-1.38,19.62,19.62,0,0,1-5.1-3.45L259.06,52.83l.49-.52.69.63a4.08,4.08,0,0,0,6.6-.28l10.12-11a4.83,4.83,0,0,0,1.54-3.38A4.78,4.78,0,0,0,276.67,35l-.69-.63Zm7.67,8L267.68,59.77l3.65,3.36a23.72,23.72,0,0,0,2.81,2.25,9.07,9.07,0,0,0,2.42,1.17,6.68,6.68,0,0,0,2.39.25q4.35-.22,8.72-5a20.32,20.32,0,0,0,2.43-3.2,13.61,13.61,0,0,0,1.44-3.18,9.6,9.6,0,0,0,.37-3.08,7.39,7.39,0,0,0-.53-2.42A9.85,9.85,0,0,0,290,47.59,23.53,23.53,0,0,0,287.53,45Z"/><path class="cls-1" d="M306.85,63l9.41,14.21a23.13,23.13,0,0,1,3.15,6.62,13.1,13.1,0,0,1,.22,6.11,13.38,13.38,0,0,1-1.87,4.78,11.76,11.76,0,0,1-3.43,3.52,11.26,11.26,0,0,1-4.79,1.82,11.49,11.49,0,0,1-5.06-.45A14.81,14.81,0,0,1,299.64,97a19.68,19.68,0,0,1-4.13-4.58L285.43,77.23l.59-.4.52.78A4.1,4.1,0,0,0,293,78.93l12.46-8.26a4.85,4.85,0,0,0,2.32-2.9,4.84,4.84,0,0,0-1-3.58l-.52-.78Zm5.53,9.57L292.12,86l2.74,4.14A23.11,23.11,0,0,0,297,93a9.1,9.1,0,0,0,2.08,1.71,6.58,6.58,0,0,0,2.25.83q4.28.83,9.66-2.74a20.52,20.52,0,0,0,3.13-2.52,13.13,13.13,0,0,0,2.16-2.75,9.93,9.93,0,0,0,1.11-2.89,7.44,7.44,0,0,0,.06-2.49,9.42,9.42,0,0,0-.79-2.61,23.29,23.29,0,0,0-1.76-3.1Z"/><path class="cls-1" d="M305.59,108.38l.28.66a4.1,4.1,0,0,0,6.12,2.5l1.79-.75,1.53-.64,2.19-.92,8.8-3.7a7.47,7.47,0,0,0,1.61-1.16,3,3,0,0,0,.75-1.3,4.9,4.9,0,0,0-.39-3.43L328,99l.62-.27,6.27,14.93-.63.26-.28-.66a4.06,4.06,0,0,0-6.11-2.48l-13.78,5.78a4.82,4.82,0,0,0-2.81,2.43,4.74,4.74,0,0,0,.3,3.67l.28.66-.66.28-6.27-14.92Z"/><path class="cls-1" d="M327.4,150.51l.14.62a14.57,14.57,0,0,1-2.87-.34,12.45,12.45,0,0,1-2.53-.92,12.21,12.21,0,0,1-6.72-8.71,15.23,15.23,0,0,1,.14-7.56,14.52,14.52,0,0,1,3.59-6.38,12,12,0,0,1,10.38-3.62,13.65,13.65,0,0,1,4.35,1.36,15.78,15.78,0,0,1,3.85,2.74,12.47,12.47,0,0,1,3.5,6.38,13.25,13.25,0,0,1,.34,2.5,9.15,9.15,0,0,1-.21,2.35,12.81,12.81,0,0,1-.82,2.42,4.14,4.14,0,0,0-.43,2q.3,1.28,3.39,2.58l.14.63-11.92,3.29-.14-.59c.83-.41,1.49-.77,2-1.08a12.23,12.23,0,0,0,1.55-1.14,18.13,18.13,0,0,0,3.67-3.91,12.44,12.44,0,0,0,1.91-4.31,9.65,9.65,0,0,0,0-4.31,6.33,6.33,0,0,0-2.28-3.78,8.23,8.23,0,0,0-4.69-1.39,29.12,29.12,0,0,0-7.36.89,35.46,35.46,0,0,0-4.38,1.29,13.54,13.54,0,0,0-3.08,1.59A7.43,7.43,0,0,0,317,135a7.34,7.34,0,0,0-1,2.95,9.63,9.63,0,0,0,.2,3.44,11.88,11.88,0,0,0,1.16,3.1,10.91,10.91,0,0,0,1.94,2.58,11.8,11.8,0,0,0,2.67,2,11.65,11.65,0,0,0,2.42,1A18.55,18.55,0,0,0,327.4,150.51Z"/><path class="cls-1" d="M344.77,155.12l.49,30.13-13,.21-.05-.59a17,17,0,0,0,8.36-3.08,8.91,8.91,0,0,0,3.87-7.53l0-1.34-19.63.32c-3.11,0-4.64,1.62-4.59,4.73l.06,3.88h-.72l-.36-22.44h.72l.06,3.84q.07,4.68,4.75,4.6l19.62-.32,0-1.65a8.64,8.64,0,0,0-4.42-7.4,16.15,16.15,0,0,0-5.07-2.07,28.83,28.83,0,0,0-3-.43v-.64Z"/><path class="cls-1" d="M322.92,258.13l-.34.59-24.64-2.22a7.08,7.08,0,0,0-2.05.1,3.64,3.64,0,0,0-1.55.72,4.91,4.91,0,0,0-1.17,1.43l-.34.59-.62-.36L299.63,246l.63.36-1,1.69a4.34,4.34,0,0,0-.72,2,1.33,1.33,0,0,0,.73,1.19,3.8,3.8,0,0,0,1.22.39c.51.09,1.48.19,2.89.31l.4,0a5.28,5.28,0,0,0,.55,0l1,.1,5.42-9.44-1.25-1.67a5,5,0,0,0-1.51-1.33,3.33,3.33,0,0,0-1.68-.43,3.22,3.22,0,0,0-1.7.44,3.43,3.43,0,0,0-.78.58,6.16,6.16,0,0,0-.69.91l-.62-.36,5.21-9.08.62.36a7.35,7.35,0,0,0-.55,1.77,7.15,7.15,0,0,0,.05,1.76q.34,2.44,3,6.13Zm-4.25-4.69-7.43-10.07-5.08,8.85Z"/><path class="cls-1" d="M289.31,281l3.94-4.22L288,271.85a4.82,4.82,0,0,0-3.36-1.55,4.77,4.77,0,0,0-3.24,1.78l-.52.55-.52-.49,11.07-11.86.52.49-.48.51a4.1,4.1,0,0,0,.23,6.61l10.93,10.2a4.07,4.07,0,0,0,6.61-.23l.47-.51.5.47-13.59,14.56a27.55,27.55,0,0,1-4.8,4.28,7.78,7.78,0,0,1-4,1.37,5.8,5.8,0,0,1-2.23-.36,5.39,5.39,0,0,1-1.89-1.12,5.29,5.29,0,0,1-1.36-5.4,12.92,12.92,0,0,1,1.29-3,24.39,24.39,0,0,1,2.15-3.25q.92-1.14,3-3.31l-.06-.06c-1.13.29-2.13.58-3,.88a18.14,18.14,0,0,0-2.42,1,25.27,25.27,0,0,0-2.46,1.49l-1.08-.19-1.58-.24-1.21-.19c-1.23-.21-2.34-.35-3.32-.42a10.4,10.4,0,0,0-2.22,0,6.33,6.33,0,0,0-2.92,2l-.49.53-.52-.49,6.58-7.05Zm4.43-3.76-5,5.36a12.06,12.06,0,0,0-2.44,3.54,4.87,4.87,0,0,0-.28,3.14,6.15,6.15,0,0,0,1.88,2.87q4.27,4,9.36-1.45l5.07-5.43Z"/><path class="cls-1" d="M281,307.48l-25,16.76-7.26-10.83.47-.36a17.08,17.08,0,0,0,7.12,5.35,9,9,0,0,0,8.43-.84l1.11-.75L254.89,300.5q-2.59-3.88-6.46-1.29l-3.23,2.16-.4-.6,18.65-12.48.4.59-3.2,2.14c-2.58,1.73-3,3.9-1.28,6.48l10.92,16.31,1.38-.92a8.68,8.68,0,0,0,3.81-7.73,16,16,0,0,0-1-5.39,27.24,27.24,0,0,0-1.28-2.77l.54-.36Z"/><path class="cls-1" d="M249.66,327.77l-16,6a22.74,22.74,0,0,1-7.15,1.58,12.92,12.92,0,0,1-6-1.15,13.35,13.35,0,0,1-4.24-2.89,11.81,11.81,0,0,1-2.66-4.12,11.33,11.33,0,0,1-.71-5.08,11.69,11.69,0,0,1,1.57-4.84,14.86,14.86,0,0,1,3.65-4.13,19.63,19.63,0,0,1,5.37-3l17.1-6.43.25.67-.88.33a4.09,4.09,0,0,0-2.72,6l5.26,14a4.07,4.07,0,0,0,6,2.73l.87-.33ZM239.09,331l-8.55-22.75L225.89,310a22.43,22.43,0,0,0-3.27,1.49,9.22,9.22,0,0,0-2.14,1.64,6.61,6.61,0,0,0-1.3,2q-1.77,4,.51,10a19.84,19.84,0,0,0,1.76,3.61,13.41,13.41,0,0,0,2.19,2.72,9.73,9.73,0,0,0,2.58,1.73,7.66,7.66,0,0,0,2.4.62,9.6,9.6,0,0,0,2.72-.19,22.39,22.39,0,0,0,3.41-1Z"/><path class="cls-1" d="M209.92,341.74,193,343.69a22.86,22.86,0,0,1-7.33-.2,12.93,12.93,0,0,1-5.54-2.57,13.33,13.33,0,0,1-3.41-3.83,11.54,11.54,0,0,1-1.58-4.65,11.18,11.18,0,0,1,.54-5.1,11.58,11.58,0,0,1,2.7-4.31,14.77,14.77,0,0,1,4.53-3.12,19.68,19.68,0,0,1,6-1.6L207,316.22l.08.71-.93.11a4.07,4.07,0,0,0-4.1,5.17l1.71,14.86a4.07,4.07,0,0,0,5.17,4.11l.93-.11Zm-11,.59-2.78-24.14-4.93.57a22.88,22.88,0,0,0-3.54.65,9.2,9.2,0,0,0-2.47,1.07,6.52,6.52,0,0,0-1.75,1.64q-2.68,3.44-1.94,9.85a20.55,20.55,0,0,0,.83,3.93,12.74,12.74,0,0,0,1.47,3.17,9.36,9.36,0,0,0,2.08,2.3,7.56,7.56,0,0,0,2.18,1.18,9.41,9.41,0,0,0,2.68.48,21.94,21.94,0,0,0,3.56-.17Z"/><path class="cls-1" d="M170.06,320.08l-.71-.06a4.09,4.09,0,0,0-5,4.34c-.05.72-.1,1.37-.14,1.94s-.08,1.13-.12,1.65-.09,1.32-.16,2.37c-.31,4.3-.53,7.48-.68,9.52a7.59,7.59,0,0,0,.32,2,3,3,0,0,0,.82,1.26,4.87,4.87,0,0,0,3.24,1.2l.71.05,0,.68-16.14-1.14.05-.68.71.05a4.06,4.06,0,0,0,5-4.33L158.94,324a4.8,4.8,0,0,0-.9-3.59,4.74,4.74,0,0,0-3.41-1.39l-.72-.05.05-.72,16.15,1.14Z"/><path class="cls-1" d="M122.63,320.57l-.62-.15A15.47,15.47,0,0,1,123.6,318a13.17,13.17,0,0,1,2-1.85,12.24,12.24,0,0,1,10.8-2.08,15.34,15.34,0,0,1,6.69,3.53,14.5,14.5,0,0,1,4.07,6.08,12,12,0,0,1,.35,7,11.77,11.77,0,0,1-1.78,3.93,13.32,13.32,0,0,1-3.18,3.27,15.73,15.73,0,0,1-4.17,2.21,12.55,12.55,0,0,1-7.28.25,13.06,13.06,0,0,1-2.38-.82,9.49,9.49,0,0,1-2-1.25,12.94,12.94,0,0,1-1.8-1.82,4,4,0,0,0-1.58-1.28c-.85-.2-2.12.42-3.83,1.87l-.63-.16,2.44-12.13.59.15c0,.92,0,1.67.06,2.27a11.67,11.67,0,0,0,.32,1.89,18.13,18.13,0,0,0,1.84,5,12.49,12.49,0,0,0,3,3.65,9.6,9.6,0,0,0,3.84,1.95,6.27,6.27,0,0,0,4.4-.33,8.28,8.28,0,0,0,3.35-3.57,29.07,29.07,0,0,0,2.52-7,33.57,33.57,0,0,0,.82-4.49,13.23,13.23,0,0,0,0-3.47,7.64,7.64,0,0,0-.87-2.57A7.07,7.07,0,0,0,139,316a9.58,9.58,0,0,0-3.15-1.38,12,12,0,0,0-3.3-.35,10.74,10.74,0,0,0-3.17.57,12.08,12.08,0,0,0-3,1.5,11.57,11.57,0,0,0-2,1.73A17.74,17.74,0,0,0,122.63,320.57Z"/><path class="cls-1" d="M110.52,334l-27-13.26L89.2,309l.55.23a17.09,17.09,0,0,0-1.06,8.84,9,9,0,0,0,5,6.87l1.21.59,8.63-17.62q2.05-4.2-2.12-6.25L97.87,300l.32-.65,20.15,9.87-.31.65-3.46-1.69q-4.18-2.06-6.25,2.14l-8.63,17.62,1.49.73a8.66,8.66,0,0,0,8.6-.58,16.06,16.06,0,0,0,4.15-3.58,27.51,27.51,0,0,0,1.75-2.5l.58.28Z"/><path class="cls-1" d="M21.5,256.22l-.32-.6,14.7-19.9a7.16,7.16,0,0,0,1-1.81,3.7,3.7,0,0,0,.2-1.69,5.09,5.09,0,0,0-.62-1.74l-.33-.6.63-.34,7.2,13.06-.63.35-.94-1.71A4.37,4.37,0,0,0,41,239.57a1.35,1.35,0,0,0-1.4,0,3.88,3.88,0,0,0-1,.84c-.35.39-.94,1.16-1.78,2.31a2.34,2.34,0,0,1-.24.32l-.32.45-.61.82,5.25,9.54,2.07-.2a5,5,0,0,0,1.92-.59,3.29,3.29,0,0,0,1.24-1.22,3.19,3.19,0,0,0,.51-1.67,3.55,3.55,0,0,0-.09-1,5.12,5.12,0,0,0-.42-1.05l.63-.35L51.84,257l-.63.34A5.51,5.51,0,0,0,48.45,255q-2.27-1-6.81-.59Zm6.21-1.2,12.47-1.11L35.26,245Z"/><path class="cls-1" d="M19.46,215.58,21,221.14l6.93-1.93A4.78,4.78,0,0,0,31,217.16a4.74,4.74,0,0,0,.17-3.7l-.2-.72.69-.2L36,228.17l-.69.2-.19-.68a4.78,4.78,0,0,0-2-3.08,4.77,4.77,0,0,0-3.7-.17l-14.41,4a4.79,4.79,0,0,0-3.09,2.05,4.82,4.82,0,0,0-.16,3.7l.19.68-.66.18L5.93,215.87a27,27,0,0,1-1.15-6.33,7.79,7.79,0,0,1,.91-4.13,6,6,0,0,1,1.47-1.71,5.34,5.34,0,0,1,1.95-1,5.28,5.28,0,0,1,5.31,1.65A13.27,13.27,0,0,1,16.28,207a23.44,23.44,0,0,1,1.65,3.53c.33.92.76,2.33,1.3,4.25l.07,0q.52-1.68.81-3a18.49,18.49,0,0,0,.37-2.6,22.72,22.72,0,0,0,0-2.87l.73-.83c.46-.55.8-1,1-1.22l.79-.93a32.65,32.65,0,0,0,2.09-2.62,9.24,9.24,0,0,0,1.14-1.91,6.09,6.09,0,0,0-.15-3.5l-.19-.7.69-.19,2.58,9.29Zm.89,5.74-2-7a12.13,12.13,0,0,0-1.75-3.93,4.92,4.92,0,0,0-2.53-1.88,6.23,6.23,0,0,0-3.43.11Q5,210.15,7,217.31l2,7.16Z"/><path class="cls-1" d="M1.22,194.64,0,164.54,13,164l.06.59a17,17,0,0,0-8.28,3.28,8.94,8.94,0,0,0-3.69,7.62l.06,1.34,19.61-.79c3.11-.12,4.6-1.74,4.48-4.84l-.16-3.88.72,0,.9,22.42-.71,0-.16-3.84q-.18-4.68-4.85-4.48l-19.61.79.06,1.65a8.66,8.66,0,0,0,4.6,7.29,15.94,15.94,0,0,0,5.13,2,27.68,27.68,0,0,0,3,.35l0,.65Z"/><path class="cls-1" d="M.25,157.4l3.18-16.75a22.79,22.79,0,0,1,2.37-6.94,13.05,13.05,0,0,1,4.11-4.53,13.58,13.58,0,0,1,4.67-2.12,11.64,11.64,0,0,1,4.91-.12,11.22,11.22,0,0,1,4.71,2,11.79,11.79,0,0,1,3.31,3.86,14.94,14.94,0,0,1,1.63,5.26,19.54,19.54,0,0,1-.24,6.16l-3.41,17.94-.7-.13.17-.93a4.76,4.76,0,0,0-.47-3.67,4.8,4.8,0,0,0-3.24-1.79l-14.7-2.79a4.82,4.82,0,0,0-3.68.47,4.81,4.81,0,0,0-1.78,3.25l-.17.93ZM3,146.68l23.87,4.53.92-4.88a22.4,22.4,0,0,0,.44-3.56,9.3,9.3,0,0,0-.29-2.68,6.75,6.75,0,0,0-1-2.16q-2.49-3.59-8.83-4.79a20,20,0,0,0-4-.37,13.2,13.2,0,0,0-3.47.45,9.9,9.9,0,0,0-2.81,1.31A7.5,7.5,0,0,0,6,136.26a9.64,9.64,0,0,0-1.25,2.42,23,23,0,0,0-.9,3.45Z"/><path class="cls-1" d="M9,116.16l7.15-15.47a22.55,22.55,0,0,1,4-6.15,12.9,12.9,0,0,1,5.08-3.4,13.46,13.46,0,0,1,5.05-.92,11.77,11.77,0,0,1,4.79,1.07,11.23,11.23,0,0,1,4.07,3.12A11.7,11.7,0,0,1,41.41,99a14.72,14.72,0,0,1,.3,5.5A19.36,19.36,0,0,1,40,110.37L32.32,127l-.65-.31.39-.85a4.79,4.79,0,0,0,.44-3.68,4.85,4.85,0,0,0-2.72-2.52l-13.57-6.27a4.83,4.83,0,0,0-3.69-.45A4.83,4.83,0,0,0,10,115.6l-.4.85Zm5.24-9.73,22.06,10.2,2.08-4.51a22.2,22.2,0,0,0,1.29-3.36A9,9,0,0,0,40,106.1a6.66,6.66,0,0,0-.48-2.35Q38,99.67,32.16,97a20.49,20.49,0,0,0-3.79-1.34,13.23,13.23,0,0,0-3.47-.39,9.65,9.65,0,0,0-3,.57,7.66,7.66,0,0,0-2.14,1.25,9.34,9.34,0,0,0-1.81,2,23,23,0,0,0-1.71,3.13Z"/><path class="cls-1" d="M48.26,93.43l.41-.58a4.08,4.08,0,0,0-1.08-6.52L46,85.2l-1.35-1-1.93-1.38c-3.51-2.51-6.1-4.35-7.76-5.55a7.25,7.25,0,0,0-1.84-.75,2.94,2.94,0,0,0-1.5,0,4.87,4.87,0,0,0-2.72,2.13l-.41.58-.56-.39,9.41-13.17.56.39-.42.59a4.82,4.82,0,0,0-1.12,3.52,4.84,4.84,0,0,0,2.22,3l12.16,8.7A4.84,4.84,0,0,0,54.28,83a4.77,4.77,0,0,0,3-2.19l.42-.58.58.42L48.84,93.85Z"/><path class="cls-1" d="M72.6,52.72l.46-.45a14.72,14.72,0,0,1,1.22,2.62,12.65,12.65,0,0,1,.55,2.64A12.21,12.21,0,0,1,71,67.83a15.21,15.21,0,0,1-6.5,3.87,14.44,14.44,0,0,1-7.31.3A12.1,12.1,0,0,1,51,68.66a11.91,11.91,0,0,1-2.42-3.57,13.51,13.51,0,0,1-1.13-4.42A15.87,15.87,0,0,1,47.77,56a12.58,12.58,0,0,1,3.58-6.34A12.91,12.91,0,0,1,53.3,48,9.27,9.27,0,0,1,55.41,47a13.8,13.8,0,0,1,2.49-.59,3.82,3.82,0,0,0,1.91-.68c.62-.61.76-2,.41-4.23l.46-.46,9.08,8.41-.43.42c-.78-.48-1.44-.86-2-1.13A13.45,13.45,0,0,0,65.58,48a18.45,18.45,0,0,0-5.27-1,12.65,12.65,0,0,0-4.67.64A9.7,9.7,0,0,0,52,49.83a6.27,6.27,0,0,0-2,3.93,8.25,8.25,0,0,0,1.3,4.72,28.9,28.9,0,0,0,4.63,5.78,32.78,32.78,0,0,0,3.41,3,13.45,13.45,0,0,0,3,1.78A6.77,6.77,0,0,0,68,69a9.87,9.87,0,0,0,2.81-2,12.1,12.1,0,0,0,2-2.63,11,11,0,0,0,1.16-3,11.64,11.64,0,0,0,.26-3.3,11,11,0,0,0-.45-2.57A17.66,17.66,0,0,0,72.6,52.72Z"/><path class="cls-1" d="M67.42,35.43,92.8,19.2l7,11-.48.35a16.93,16.93,0,0,0-7-5.5,8.9,8.9,0,0,0-8.44.66l-1.13.72L93.34,43q2.52,3.93,6.44,1.43l3.27-2.09.39.6L84.53,55l-.39-.61,3.24-2.07q3.93-2.51,1.42-6.45L78.23,29.32l-1.39.9c-2.59,1.65-3.91,4.2-4,7.65a16.33,16.33,0,0,0,.9,5.4A28.14,28.14,0,0,0,75,46.07l-.54.35Z"/></g></g></svg>