<svg xmlns="http://www.w3.org/2000/svg" width="305" height="71.752" viewBox="0 0 305 71.752">
  <g id="Group_92" data-name="Group 92" transform="translate(-61.105 -364.105)">
    <rect id="Rectangle_9" data-name="Rectangle 9" width="103.692" height="71.752" transform="translate(61.105 364.105)" fill="#81FC4D"/>
    <g id="Rectangle_10" data-name="Rectangle 10" transform="translate(164.199 364.105)" stroke="#81FC4D" stroke-miterlimit="10" stroke-width="2">
      <rect width="201.906" height="71.752" stroke="none"/>
      <rect x="1" y="1" width="199.906" height="69.752" fill="none"/>
    </g>
    <path id="Path_9" data-name="Path 9" d="M91.726,410.523l-4.219-12.487H76.06l-4.451,12.487h4.336v1.1H67.1v-1.1h2.718l14.74-39.715H89.3l14.569,39.715h2.658v1.1h-18.9v-1.1Zm-9.712-28.9-5.433,15.146H87.044Z" transform="translate(-0.219 8.249)"/>
    <path id="Path_10" data-name="Path 10" d="M128.287,386.2q-2.14,0-3.758,2.775a12.843,12.843,0,0,0-1.619,6.59v15.493h4.1V412.1H108.979v-1.041h3.18V385.627h-3.18v-1.041h13.932v5.55a7.839,7.839,0,0,1,2.89-4.538,7.928,7.928,0,0,1,4.856-1.59,6.374,6.374,0,0,1,4.422,1.532,5.53,5.53,0,0,1,1.705,4.336,6.493,6.493,0,0,1-1.272,4.307,4.828,4.828,0,0,1-3.9,1.5,4.442,4.442,0,0,1-3.874-1.734q-1.243-1.734-.317-4.8H129.5Q130.945,386.2,128.287,386.2Z" transform="translate(-1.748 7.767)"/>
    <path id="Path_11" data-name="Path 11" d="M141.558,403.475v-18.21h-3.18v-1.041h3.18v-7.457l10.753-2.659v10.117h7.515v1.041H152.31v19.482a10.717,10.717,0,0,0,.549,3.989,2.225,2.225,0,0,0,2.284,1.272,3.749,3.749,0,0,0,3.034-1.734,10.043,10.043,0,0,0,1.705-4.74l.984.116a11.22,11.22,0,0,1-2.545,6.33q-2.081,2.341-6.879,2.341t-7.341-1.908Q141.557,408.5,141.558,403.475Z" transform="translate(-2.821 8.129)"/>
    <path id="Path_12" data-name="Path 12" d="M217.68,390.708q0,11.91-6.706,16.591-6.187,4.336-17,4.336H177.617v-1.1h3.816v-38.27h-3.816v-1.1H195.48q11.1,0,16.65,4.538T217.68,390.708Zm-24.974,19.829h2.2q5.837,0,8.353-4.133t2.515-13.845V389.2q0-13.007-4.973-15.666a14.41,14.41,0,0,0-6.7-1.272h-1.387Z" transform="translate(-4.254 8.236)" fill="#81FC4D"/>
    <path id="Path_13" data-name="Path 13" d="M262.979,390.708q0,11.91-6.706,16.591-6.186,4.336-17,4.336h-16.36v-1.1h3.815v-38.27h-3.815v-1.1H240.78q11.1,0,16.649,4.538T262.979,390.708Zm-24.974,19.829h2.2q5.839,0,8.353-4.133t2.515-13.845V389.2q0-13.007-4.972-15.666a14.417,14.417,0,0,0-6.706-1.272h-1.387Z" transform="translate(-5.908 8.236)" fill="#81FC4D"/>
    <path id="Path_14" data-name="Path 14" d="M268.456,371.168h17.632v1.1h-3.18v38.27h3.18v1.1H268.456v-1.1h3.18v-38.27h-3.18Z" transform="translate(-7.571 8.236)" fill="#81FC4D"/>
    <path id="Path_15" data-name="Path 15" d="M311.47,371.664q-8.962,0-8.961,17.285v4.567q0,8.209,2.37,12.863t6.995,4.654q6.358,0,11.677-12.371h1.041l-.4,12.891h-.636a3.5,3.5,0,0,0-.636-.9,1.214,1.214,0,0,0-.838-.26,34.378,34.378,0,0,0-4.191.9,30.859,30.859,0,0,1-7.4.9q-9.423,0-14.6-5.087t-5.174-15.291q0-10.2,5.405-15.753t14.539-5.55a26.862,26.862,0,0,1,6.908.9,27.937,27.937,0,0,0,3.961.9,1.26,1.26,0,0,0,.866-.26,3.466,3.466,0,0,0,.636-.9h.636l.462,12.545h-1.041a35.123,35.123,0,0,0-5.347-8.932A8.218,8.218,0,0,0,311.47,371.664Z" transform="translate(-8.383 8.26)" fill="#81FC4D"/>
    <path id="Path_16" data-name="Path 16" d="M364.7,371.168l.577,14.51h-1.1q-2.545-7.687-4.509-10.492a6.5,6.5,0,0,0-5.666-2.8h-.693v38.039h4.914v1.214h-21.1v-1.214h4.913V372.382h-.75a6.559,6.559,0,0,0-5.723,2.919q-2.025,2.921-4.451,10.377h-1.1l.577-14.51Z" transform="translate(-9.818 8.236)" fill="#81FC4D"/>
  </g>
</svg>
