<svg xmlns="http://www.w3.org/2000/svg" viewBox="0 0 224.65 148.64"><defs><style>.cls-1{fill:#81fc4d;}</style></defs><g id="圖層_2" data-name="圖層 2"><g id="圖層_1-2" data-name="圖層 1"><path class="cls-1" d="M8.79,91.42l-2.6-4.59A119.4,119.4,0,0,1,.52,75.52L0,74.32l.53-1.2a122.78,122.78,0,0,1,6.6-12.93,125.35,125.35,0,0,1,7.52-11.31,122,122,0,0,1,195.34,0l1.36,1.8L210,52.48a122.94,122.94,0,0,1-9.61,11.31L198.21,66l-2.16-2.25a116,116,0,0,0-167.45,0A114.74,114.74,0,0,0,11.4,86.84ZM6.56,74.32q1.13,2.5,2.37,5c1.81-2.88,3.73-5.67,5.72-8.34a124.64,124.64,0,0,1,9.62-11.31,122,122,0,0,1,173.89-2.25q3-3.26,5.66-6.7a116,116,0,0,0-184.37,1.8A119.34,119.34,0,0,0,12.3,63.23,115.06,115.06,0,0,0,6.56,74.32Z"/><path class="cls-1" d="M112.32,148.64A121.1,121.1,0,0,1,14.65,99.76L13.3,98l1.36-1.8A124.25,124.25,0,0,1,25.84,83.23L28,81.1l2.13,2.13a115.23,115.23,0,0,0,82.23,34.19,115.25,115.25,0,0,0,82.24-34.19A118,118,0,0,0,205.2,70.94a119.34,119.34,0,0,0,7.15-10.75l2.59-4.39,2.58,4.39a120.87,120.87,0,0,1,6.6,12.93l.53,1.2-.53,1.2a119.31,119.31,0,0,1-5.66,11.31A123.05,123.05,0,0,1,210,99.76,121.07,121.07,0,0,1,112.32,148.64ZM20.83,98a116,116,0,0,0,184.36-1.8,118.85,118.85,0,0,0,8.06-12.29c1.75-3.1,3.38-6.31,4.84-9.55-1-2.26-2.12-4.5-3.28-6.7-1.53,2.37-3.14,4.68-4.81,6.92a125.61,125.61,0,0,1-11.19,12.93,121.23,121.23,0,0,1-86.49,36A121.15,121.15,0,0,1,28,89.6C25.52,92.25,23.11,95.05,20.83,98Z"/><path class="cls-1" d="M17.05,103l-2.39-3.19A121.49,121.49,0,0,1,6.19,86.83l-.85-1.48.85-1.49A121.16,121.16,0,0,1,24.27,59.63a122,122,0,0,1,176.11,0l2,2.08-2,2.08a121.88,121.88,0,0,1-14.53,12.92L184,78.08l-1.81-1.37a116,116,0,0,0-139.82,0,117.14,117.14,0,0,0-23,23.05Zm-4.79-17.6q2.31,3.93,4.88,7.61a122.25,122.25,0,0,1,21.65-21A122,122,0,0,1,184,70.56a116.47,116.47,0,0,0,10-8.85A116,116,0,0,0,28.6,63.79,114.67,114.67,0,0,0,12.26,85.35Z"/><path class="cls-1" d="M112.32,123.42A121.22,121.22,0,0,1,25.84,87.47l-2.11-2.12,2.11-2.12a125.5,125.5,0,0,1,13-11.3l1.81-1.37,1.81,1.37a115,115,0,0,0,69.91,23.43,115,115,0,0,0,69.91-23.43,116.71,116.71,0,0,0,13.82-12.3,118.32,118.32,0,0,0,9.15-10.75l2.4-3.2,2.4,3.2a125.35,125.35,0,0,1,7.52,11.31l.9,1.52-.9,1.52A124.65,124.65,0,0,1,210,74.54a125.61,125.61,0,0,1-11.19,12.93A121.23,121.23,0,0,1,112.32,123.42ZM32.25,85.35a115.19,115.19,0,0,0,80.07,32.07,115.25,115.25,0,0,0,82.24-34.19A118,118,0,0,0,205.2,70.94c2.21-3,4.3-6.06,6.24-9.23-1.25-2-2.56-4.06-3.94-6-2.25,2.8-4.64,5.52-7.12,8.11a121.88,121.88,0,0,1-14.53,12.92,120.94,120.94,0,0,1-73.53,24.65A120.94,120.94,0,0,1,40.64,78.08C37.74,80.37,34.93,82.81,32.25,85.35Z"/><path class="cls-1" d="M112.32,101.36A121,121,0,0,1,38.79,76.71l-3.16-2.39,3.16-2.39a122,122,0,0,1,147.06,0L189,74.32l-3.17,2.39A120.94,120.94,0,0,1,112.32,101.36Zm-66.63-27a115,115,0,0,0,66.63,21,114.94,114.94,0,0,0,66.63-21,116,116,0,0,0-133.26,0Z"/><path class="cls-1" d="M112.32,91.32a17,17,0,1,1,17-17A17,17,0,0,1,112.32,91.32Zm0-28a11,11,0,1,0,11,11A11,11,0,0,0,112.32,63.32Z"/></g></g></svg>