<svg id="Group_92" data-name="Group 92" xmlns="http://www.w3.org/2000/svg" width="348.235" height="81.924" viewBox="0 0 348.235 81.924">
  <rect id="Rectangle_9" data-name="Rectangle 9" width="118.39" height="81.924" transform="translate(0 0)" fill="#81fc4d"/>
  <g id="Rectangle_10" data-name="Rectangle 10" transform="translate(117.708 0)" stroke="#00ff02" stroke-miterlimit="10" stroke-width="2">
    <rect width="230.527" height="81.924" stroke="none"/>
    <rect x="1" y="1" width="228.527" height="79.924" fill="none"/>
  </g>
  <path id="Path_9" data-name="Path 9" d="M28.118,45.345,23.3,31.088H10.232L5.149,45.345H10.1V46.6H0V45.345H3.1L19.933,0h5.412L41.98,45.345h3.035V46.6H23.433V45.345Zm-11.089-33-6.2,17.293H22.772Z" transform="translate(6.594 17.071)"/>
  <path id="Path_10" data-name="Path 10" d="M22.045,2.508q-2.444,0-4.29,3.168A14.663,14.663,0,0,0,15.907,13.2V30.89h4.685v1.188H0V30.89H3.63V1.848H0V.66H15.907V7a8.951,8.951,0,0,1,3.3-5.181A9.052,9.052,0,0,1,24.752,0,7.278,7.278,0,0,1,29.8,1.749,6.314,6.314,0,0,1,31.748,6.7,7.413,7.413,0,0,1,30.3,11.617a5.512,5.512,0,0,1-4.455,1.716,5.072,5.072,0,0,1-4.423-1.98Q20,9.373,21.055,5.874h2.376Q25.08,2.508,22.045,2.508Z" transform="translate(52.664 31.592)"/>
  <path id="Path_11" data-name="Path 11" d="M3.63,33.53V12.739H0V11.551H3.63V3.036L15.907,0V11.551h8.581v1.188H15.907V34.982a12.236,12.236,0,0,0,.627,4.554,2.54,2.54,0,0,0,2.608,1.452,4.28,4.28,0,0,0,3.464-1.98A11.466,11.466,0,0,0,24.553,33.6l1.123.132a12.811,12.811,0,0,1-2.905,7.228q-2.376,2.673-7.854,2.673T6.535,41.451Q3.63,39.272,3.63,33.53Z" transform="translate(85.005 20.702)"/>
  <path id="Path_12" data-name="Path 12" d="M45.742,22.309q0,13.6-7.656,18.943Q31.021,46.2,18.68,46.2H0V44.949H4.357V1.254H0V0H20.4Q33.07,0,39.406,5.181T45.742,22.309ZM17.228,44.949h2.508q6.665,0,9.538-4.719t2.871-15.808V20.593q0-14.851-5.677-17.887a16.453,16.453,0,0,0-7.655-1.452H17.228Z" transform="translate(128.171 17.468)" fill="#81fc4d"/>
  <path id="Path_13" data-name="Path 13" d="M45.741,22.309q0,13.6-7.657,18.943Q31.022,46.2,18.679,46.2H0V44.949H4.356V1.254H0V0H20.4Q33.068,0,39.4,5.181T45.741,22.309ZM17.227,44.949h2.508q6.666,0,9.538-4.719t2.871-15.808V20.593q0-14.851-5.676-17.887a16.461,16.461,0,0,0-7.656-1.452H17.227Z" transform="translate(178.004 17.468)" fill="#81fc4d"/>
  <path id="Path_14" data-name="Path 14" d="M0,0H20.131V1.254H16.5V44.949h3.63V46.2H0V44.949H3.63V1.254H0Z" transform="translate(228.1 17.468)" fill="#81fc4d"/>
  <path id="Path_15" data-name="Path 15" d="M23.7,1.32q-10.232,0-10.231,19.735V26.27q0,9.373,2.706,14.686t7.987,5.313q7.259,0,13.333-14.125h1.188l-.462,14.719H37.49a4,4,0,0,0-.726-1.023,1.386,1.386,0,0,0-.957-.3,39.26,39.26,0,0,0-4.785,1.023,35.233,35.233,0,0,1-8.449,1.023q-10.758,0-16.666-5.808T0,24.322Q0,12.674,6.171,6.336T22.771,0a30.668,30.668,0,0,1,7.887,1.023,31.9,31.9,0,0,0,4.522,1.023,1.438,1.438,0,0,0,.989-.3A3.958,3.958,0,0,0,36.9.726h.726l.528,14.323H36.962a40.1,40.1,0,0,0-6.105-10.2A9.383,9.383,0,0,0,23.7,1.32Z" transform="translate(252.587 16.741)" fill="#81fc4d"/>
  <path id="Path_16" data-name="Path 16" d="M39.6,0l.659,16.567H39.009Q36.1,7.79,33.86,4.587a7.419,7.419,0,0,0-6.469-3.2H26.6V44.817h5.61V46.2H8.119V44.817h5.609V1.386h-.857A7.488,7.488,0,0,0,6.336,4.719Q4.025,8.054,1.254,16.567H0L.659,0Z" transform="translate(295.82 17.468)" fill="#81fc4d"/>
</svg>
