<svg xmlns="http://www.w3.org/2000/svg" width="220" height="110" viewBox="0 0 220 110">
  <path id="Subtraction_1" data-name="Subtraction 1" d="M5719,518H5499a110.825,110.825,0,0,1,2.235-22.169,109.408,109.408,0,0,1,16.551-39.333,110.323,110.323,0,0,1,48.4-39.854,109.437,109.437,0,0,1,20.648-6.41,111.068,111.068,0,0,1,44.337,0,109.389,109.389,0,0,1,39.333,16.551,110.323,110.323,0,0,1,39.854,48.4,109.444,109.444,0,0,1,6.409,20.648A110.8,110.8,0,0,1,5719,518Z" transform="translate(-5499 -408)"/>
</svg>
