<svg id="Component_17_1" data-name="Component 17 – 1" xmlns="http://www.w3.org/2000/svg" width="297.082" height="296.852" viewBox="0 0 297.082 296.852">
  <path id="Path_68" data-name="Path 68" d="M275.952,260.877l-.335-.793a136.912,136.912,0,0,1,40.5-10.178l-4.743-3.65.525-.682,6.491,5-1.1.094A136.042,136.042,0,0,0,275.952,260.877Z" transform="translate(-180.184 -238.981)" fill="#1d0aff"/>
  <path id="Path_69" data-name="Path 69" d="M482.256,470.267l.459-1.007A136.031,136.031,0,0,0,494.1,428.228l.854.1a136.856,136.856,0,0,1-11.007,40.286l5.508-2.341.336.792Z" transform="translate(-209.018 -264.468)" fill="#1d0aff"/>
  <path id="Path_70" data-name="Path 70" d="M239.571,535.344a136.89,136.89,0,0,1-29.889-29.167l-.625,5.952-.855-.089.854-8.147.658.89a136.033,136.033,0,0,0,30.356,29.862Z" transform="translate(-170.777 -275.026)" fill="#1d0aff"/>
  <g id="Group_260" data-name="Group 260">
    <g id="Group_259" data-name="Group 259">
      <path id="Path_71" data-name="Path 71" d="M343.983,237.5l.585.029,7.905,19.767a6.067,6.067,0,0,0,.881,1.534,3.181,3.181,0,0,0,1.15.906,4.31,4.31,0,0,0,1.552.34l.584.029-.031.617-12.819-.651.031-.616,1.676.085a3.733,3.733,0,0,0,1.842-.248,1.135,1.135,0,0,0,.631-1.021,3.29,3.29,0,0,0-.175-1.087q-.2-.643-.888-2.343-.043-.1-.127-.323c-.055-.151-.117-.3-.183-.438l-.323-.824-9.358-.473-.8,1.607a4.382,4.382,0,0,0-.433,1.674,2.881,2.881,0,0,0,.33,1.458,2.745,2.745,0,0,0,1,1.128,3,3,0,0,0,.749.379,5.241,5.241,0,0,0,.966.169l-.031.615-8.994-.455.031-.617a5.948,5.948,0,0,0,1.575-.268,5.69,5.69,0,0,0,1.328-.725,12.75,12.75,0,0,0,3.52-4.719Zm-1.937,5.084-4.83,9.629,8.772.444Z" transform="translate(-188.055 -237.503)" fill="#1d0aff"/>
      <path id="Path_72" data-name="Path 72" d="M379.21,254.714l-4.774-1.382-1.721,5.944a3.536,3.536,0,0,0,2.744,4.98l.623.181-.171.592L362.5,261.148l.171-.594.578.168a3.52,3.52,0,0,0,4.979-2.744l3.578-12.36a3.5,3.5,0,0,0-2.744-4.979l-.577-.169.164-.562,16.464,4.766a23.661,23.661,0,0,1,5.15,2.019,6.662,6.662,0,0,1,2.611,2.535,5.131,5.131,0,0,1,.593,1.853,4.636,4.636,0,0,1-.127,1.89,4.548,4.548,0,0,1-3.611,3.14,11.43,11.43,0,0,1-2.783.167,21.414,21.414,0,0,1-3.332-.389q-1.227-.256-3.691-.969l-.017.061q.987,1.142,1.826,1.945a16.072,16.072,0,0,0,1.738,1.452,20.662,20.662,0,0,0,2.094,1.306l.281.905q.292.875.428,1.31t.321,1q.476,1.538.969,2.71a8.6,8.6,0,0,0,.885,1.7,5.338,5.338,0,0,0,2.639,1.472l.593.171-.172.594-7.966-2.307Zm-4.611-1.945,6.051,1.752a10.447,10.447,0,0,0,3.672.494,4.192,4.192,0,0,0,2.514-1,5.312,5.312,0,0,0,1.476-2.564q1.4-4.835-4.758-6.616l-6.141-1.779Z" transform="translate(-192.631 -237.839)" fill="#1d0aff"/>
      <path id="Path_73" data-name="Path 73" d="M408.057,252.6l22.576,12.743-5.516,9.772-.456-.222a14.667,14.667,0,0,0,1.35-7.544A7.684,7.684,0,0,0,422.1,261.2l-1.006-.569-8.3,14.706q-1.976,3.5,1.511,5.47l2.908,1.641-.3.538L400.1,273.5l.3-.537,2.88,1.625q3.5,1.976,5.478-1.525l8.3-14.706-1.24-.7a7.444,7.444,0,0,0-7.416.066,13.749,13.749,0,0,0-3.745,2.866,24.085,24.085,0,0,0-1.634,2.057l-.483-.272Z" transform="translate(-197.877 -239.61)" fill="#1d0aff"/>
      <path id="Path_74" data-name="Path 74" d="M439.1,271.412l10.806,9.925a19.654,19.654,0,0,1,3.993,4.882,11.142,11.142,0,0,1,1.447,5.058,11.547,11.547,0,0,1-.57,4.375,10.06,10.06,0,0,1-2.136,3.647,9.691,9.691,0,0,1-3.623,2.518,10.073,10.073,0,0,1-4.324.67,12.737,12.737,0,0,1-4.587-1.193,16.929,16.929,0,0,1-4.388-2.967L424.147,287.7l.416-.454.595.546a3.521,3.521,0,0,0,5.681-.241l8.7-9.477a3.5,3.5,0,0,0-.242-5.68l-.595-.546Zm6.6,6.855-14.143,15.4,3.148,2.891a19.694,19.694,0,0,0,2.412,1.936,7.88,7.88,0,0,0,2.087,1,5.742,5.742,0,0,0,2.054.221q3.744-.194,7.5-4.285a17.535,17.535,0,0,0,2.089-2.754,11.366,11.366,0,0,0,1.239-2.741,8.3,8.3,0,0,0,.324-2.646,6.536,6.536,0,0,0-.459-2.087,8.222,8.222,0,0,0-1.2-2.015,19.351,19.351,0,0,0-2.117-2.223Z" transform="translate(-201.233 -242.235)" fill="#1d0aff"/>
      <path id="Path_75" data-name="Path 75" d="M468.942,300.538l8.1,12.231a19.677,19.677,0,0,1,2.7,5.7,11.13,11.13,0,0,1,.189,5.257,11.552,11.552,0,0,1-1.6,4.111,10.075,10.075,0,0,1-2.95,3.026,9.672,9.672,0,0,1-4.122,1.573,10.065,10.065,0,0,1-4.358-.387,12.728,12.728,0,0,1-4.166-2.262,16.915,16.915,0,0,1-3.546-3.934l-8.68-13.1.515-.341.446.673a3.521,3.521,0,0,0,5.572,1.131l10.727-7.107a3.505,3.505,0,0,0,1.131-5.572l-.446-.672Zm4.757,8.24-17.43,11.547,2.36,3.562a19.611,19.611,0,0,0,1.877,2.459,7.855,7.855,0,0,0,1.784,1.476,5.7,5.7,0,0,0,1.941.707q3.68.714,8.311-2.355A17.507,17.507,0,0,0,475.233,324a11.372,11.372,0,0,0,1.861-2.364,8.237,8.237,0,0,0,.951-2.49,6.5,6.5,0,0,0,.057-2.136,8.2,8.2,0,0,0-.681-2.245,19.587,19.587,0,0,0-1.52-2.667Z" transform="translate(-204.912 -246.299)" fill="#1d0aff"/>
      <path id="Path_76" data-name="Path 76" d="M470.584,344.535l.238.569a3.52,3.52,0,0,0,5.263,2.15l1.547-.65,1.314-.552,1.883-.79,7.573-3.179a6.356,6.356,0,0,0,1.383-1,2.561,2.561,0,0,0,.645-1.121,4.193,4.193,0,0,0-.33-2.951l-.239-.57.54-.226,5.391,12.842-.539.226-.239-.569a3.5,3.5,0,0,0-5.257-2.136l-11.864,4.98a3.517,3.517,0,0,0-2.156,5.248l.238.57-.569.239-5.392-12.842Z" transform="translate(-207.633 -251.277)" fill="#1d0aff"/>
      <path id="Path_77" data-name="Path 77" d="M490.753,384.239l.124.54a13.211,13.211,0,0,1-2.471-.293,10.916,10.916,0,0,1-2.18-.8,10.5,10.5,0,0,1-5.779-7.491,13.112,13.112,0,0,1,.121-6.507,12.449,12.449,0,0,1,3.092-5.485,10.327,10.327,0,0,1,8.929-3.122,11.782,11.782,0,0,1,3.746,1.178,13.461,13.461,0,0,1,3.308,2.35,10.759,10.759,0,0,1,3.015,5.495,11.332,11.332,0,0,1,.291,2.149,7.988,7.988,0,0,1-.185,2.024,11.625,11.625,0,0,1-.7,2.084,3.411,3.411,0,0,0-.371,1.71q.252,1.095,2.914,2.222l.124.54-10.264,2.827-.116-.509q1.065-.521,1.72-.923a10.794,10.794,0,0,0,1.334-.98,15.7,15.7,0,0,0,3.156-3.371,10.8,10.8,0,0,0,1.65-3.708,8.287,8.287,0,0,0,.009-3.705,5.387,5.387,0,0,0-1.957-3.253,7.075,7.075,0,0,0-4.041-1.192,24.91,24.91,0,0,0-6.329.763,28.765,28.765,0,0,0-3.772,1.11,11.536,11.536,0,0,0-2.65,1.364,6.418,6.418,0,0,0-1.639,1.667,6.143,6.143,0,0,0-.9,2.538,8.3,8.3,0,0,0,.167,2.958,10.444,10.444,0,0,0,1,2.667,9.419,9.419,0,0,0,1.67,2.216,10.253,10.253,0,0,0,2.3,1.689,10.065,10.065,0,0,0,2.084.836A15.547,15.547,0,0,0,490.753,384.239Z" transform="translate(-209.04 -254.733)" fill="#1d0aff"/>
      <path id="Path_78" data-name="Path 78" d="M506.278,392.627l.42,25.921-11.22.182-.04-.506a14.659,14.659,0,0,0,7.191-2.649,7.684,7.684,0,0,0,3.33-6.48l-.018-1.156-16.886.274q-4.019.066-3.955,4.069l.054,3.339-.617.009-.313-19.306.617-.01.053,3.308q.066,4.019,4.085,3.955l16.885-.275-.023-1.424a7.446,7.446,0,0,0-3.808-6.365,13.77,13.77,0,0,0-4.365-1.781,24.277,24.277,0,0,0-2.6-.369l-.009-.553Z" transform="translate(-209.616 -259.149)" fill="#1d0aff"/>
      <path id="Path_79" data-name="Path 79" d="M483.717,491.96l-.292.508-21.2-1.91a6.091,6.091,0,0,0-1.767.09,3.191,3.191,0,0,0-1.329.615,4.293,4.293,0,0,0-1.007,1.23l-.291.509-.535-.308,6.387-11.133.535.306-.835,1.456a3.735,3.735,0,0,0-.614,1.754,1.137,1.137,0,0,0,.625,1.025,3.294,3.294,0,0,0,1.048.337q.663.115,2.491.269c.071,0,.186.016.345.034s.318.03.473.034l.881.087,4.663-8.127-1.073-1.437a4.368,4.368,0,0,0-1.3-1.144,2.878,2.878,0,0,0-1.45-.367,2.751,2.751,0,0,0-1.458.377,3.008,3.008,0,0,0-.677.5,5.21,5.21,0,0,0-.587.786l-.535-.308,4.481-7.811.535.308a6,6,0,0,0-.474,1.525,5.718,5.718,0,0,0,.045,1.514,12.768,12.768,0,0,0,2.611,5.275Zm-3.654-4.031-6.394-8.668L469.3,486.88Z" transform="translate(-205.858 -269.851)" fill="#1d0aff"/>
      <path id="Path_80" data-name="Path 80" d="M451.342,515.6l3.391-3.632-4.524-4.223a3.537,3.537,0,0,0-5.682.2l-.442.475-.452-.422,9.525-10.2.451.421-.41.44a3.521,3.521,0,0,0,.2,5.682l9.407,8.779a3.5,3.5,0,0,0,5.682-.2l.41-.44.429.4-11.7,12.532a23.7,23.7,0,0,1-4.128,3.68,6.665,6.665,0,0,1-3.442,1.182,5.149,5.149,0,0,1-1.92-.308,4.653,4.653,0,0,1-1.63-.969,4.545,4.545,0,0,1-1.168-4.64,11.434,11.434,0,0,1,1.11-2.557,21.253,21.253,0,0,1,1.853-2.8q.784-.98,2.532-2.853l-.046-.044q-1.466.365-2.561.749a16.285,16.285,0,0,0-2.081.894,20.8,20.8,0,0,0-2.112,1.278l-.934-.159q-.911-.135-1.362-.21t-1.037-.166q-1.588-.27-2.856-.361a8.606,8.606,0,0,0-1.914.021,5.34,5.34,0,0,0-2.507,1.688l-.421.452-.451-.422,5.658-6.063Zm3.82-3.234-4.3,4.606a10.406,10.406,0,0,0-2.1,3.051,4.187,4.187,0,0,0-.243,2.7,5.309,5.309,0,0,0,1.619,2.475q3.678,3.435,8.053-1.252l4.363-4.674Z" transform="translate(-202.406 -273.822)" fill="#1d0aff"/>
      <path id="Path_81" data-name="Path 81" d="M441.008,542.3l-21.542,14.424-6.243-9.324.4-.308a14.661,14.661,0,0,0,6.128,4.6,7.685,7.685,0,0,0,7.25-.721l.96-.643-9.4-14.032q-2.238-3.34-5.565-1.112l-2.774,1.858-.344-.514,16.044-10.743.344.514-2.749,1.84q-3.34,2.237-1.1,5.578l9.4,14.032,1.184-.792a7.447,7.447,0,0,0,3.278-6.653,13.75,13.75,0,0,0-.874-4.634,24.268,24.268,0,0,0-1.1-2.385l.46-.309Z" transform="translate(-199.243 -277.73)" fill="#1d0aff"/>
      <path id="Path_82" data-name="Path 82" d="M409.614,561.917l-13.733,5.164a19.68,19.68,0,0,1-6.159,1.36,11.136,11.136,0,0,1-5.166-.991,11.547,11.547,0,0,1-3.648-2.483,10.069,10.069,0,0,1-2.291-3.552,9.682,9.682,0,0,1-.611-4.369,10.075,10.075,0,0,1,1.352-4.16,12.749,12.749,0,0,1,3.136-3.555,16.95,16.95,0,0,1,4.628-2.577l14.71-5.53.217.577-.755.284a3.52,3.52,0,0,0-2.347,5.177l4.528,12.044a3.5,3.5,0,0,0,5.178,2.348l.755-.284Zm-9.1,2.794-7.358-19.57-4,1.5a19.645,19.645,0,0,0-2.816,1.279,7.889,7.889,0,0,0-1.838,1.409,5.723,5.723,0,0,0-1.124,1.733q-1.517,3.428.438,8.628a17.527,17.527,0,0,0,1.515,3.109,11.336,11.336,0,0,0,1.887,2.341,8.256,8.256,0,0,0,2.215,1.484,6.483,6.483,0,0,0,2.069.533,8.215,8.215,0,0,0,2.34-.161,19.482,19.482,0,0,0,2.938-.886Z" transform="translate(-194.789 -279.883)" fill="#1d0aff"/>
      <path id="Path_83" data-name="Path 83" d="M370.136,575.685l-14.574,1.678a19.669,19.669,0,0,1-6.305-.174,11.151,11.151,0,0,1-4.772-2.215,11.566,11.566,0,0,1-2.936-3.294,10.079,10.079,0,0,1-1.36-4,9.679,9.679,0,0,1,.466-4.387,10.1,10.1,0,0,1,2.322-3.709,12.752,12.752,0,0,1,3.9-2.687,16.952,16.952,0,0,1,5.114-1.378l15.614-1.8.071.614-.8.092a3.52,3.52,0,0,0-3.534,4.454l1.471,12.782a3.506,3.506,0,0,0,4.454,3.535l.8-.093Zm-9.5.5-2.391-20.77-4.246.489a19.592,19.592,0,0,0-3.043.558,7.857,7.857,0,0,0-2.124.921,5.716,5.716,0,0,0-1.511,1.409q-2.3,2.957-1.668,8.476a17.48,17.48,0,0,0,.716,3.383,11.31,11.31,0,0,0,1.262,2.73,8.245,8.245,0,0,0,1.789,1.976,6.47,6.47,0,0,0,1.878,1.019,8.221,8.221,0,0,0,2.31.411,19.543,19.543,0,0,0,3.066-.146Z" transform="translate(-189.508 -281.627)" fill="#1d0aff"/>
      <path id="Path_84" data-name="Path 84" d="M332.646,557.319l-.615-.044A3.521,3.521,0,0,0,327.738,561c-.044.621-.083,1.178-.119,1.674s-.068.969-.1,1.421-.08,1.132-.144,2.037q-.392,5.558-.577,8.194a6.345,6.345,0,0,0,.269,1.685,2.569,2.569,0,0,0,.709,1.082,4.2,4.2,0,0,0,2.783,1.037l.616.043-.041.584-13.893-.98.041-.583.615.043a3.5,3.5,0,0,0,4.277-3.728l.905-12.836a3.518,3.518,0,0,0-3.712-4.292l-.615-.043.043-.615,13.894.979Z" transform="translate(-186.316 -281.907)" fill="#1d0aff"/>
      <path id="Path_85" data-name="Path 85" d="M287.189,557.109l-.538-.132a13.211,13.211,0,0,1,1.374-2.075,10.768,10.768,0,0,1,1.694-1.588,10.5,10.5,0,0,1,9.29-1.791,13.138,13.138,0,0,1,5.757,3.036,12.462,12.462,0,0,1,3.505,5.23,10.332,10.332,0,0,1-1.23,9.38,11.776,11.776,0,0,1-2.737,2.814,13.426,13.426,0,0,1-3.588,1.9,10.75,10.75,0,0,1-6.264.22,11.426,11.426,0,0,1-2.051-.707,7.98,7.98,0,0,1-1.724-1.076,11.576,11.576,0,0,1-1.547-1.563,3.415,3.415,0,0,0-1.36-1.1q-1.092-.268-3.295,1.6l-.538-.132,2.094-10.437.508.125q-.015,1.186.049,1.952a10.776,10.776,0,0,0,.275,1.632,15.718,15.718,0,0,0,1.591,4.336,10.8,10.8,0,0,0,2.568,3.141,8.3,8.3,0,0,0,3.3,1.677,5.4,5.4,0,0,0,3.786-.284A7.076,7.076,0,0,0,301,570.193a24.9,24.9,0,0,0,2.167-5.995,28.846,28.846,0,0,0,.706-3.868,11.535,11.535,0,0,0-.025-2.981,6.424,6.424,0,0,0-.751-2.214,6.152,6.152,0,0,0-1.859-1.948,8.3,8.3,0,0,0-2.717-1.182,10.424,10.424,0,0,0-2.834-.3,9.419,9.419,0,0,0-2.729.494,10.213,10.213,0,0,0-2.542,1.29,10.025,10.025,0,0,0-1.685,1.484A15.594,15.594,0,0,0,287.189,557.109Z" transform="translate(-181.669 -281.268)" fill="#1d0aff"/>
      <path id="Path_86" data-name="Path 86" d="M271.832,566.653l-23.282-11.4,4.936-10.078.469.2a14.661,14.661,0,0,0-.908,7.609,7.687,7.687,0,0,0,4.26,5.911l1.038.509,7.428-15.166q1.77-3.61-1.828-5.373l-3-1.469.272-.554,17.34,8.495-.272.555-2.97-1.456q-3.61-1.768-5.379,1.842l-7.428,15.165,1.279.626a7.443,7.443,0,0,0,7.4-.5,13.736,13.736,0,0,0,3.57-3.08,23.85,23.85,0,0,0,1.512-2.15l.5.243Z" transform="translate(-176.731 -279.271)" fill="#1d0aff"/>
      <path id="Path_87" data-name="Path 87" d="M186.542,490l-.282-.513,12.649-17.122a6.126,6.126,0,0,0,.842-1.557,3.166,3.166,0,0,0,.164-1.455,4.272,4.272,0,0,0-.527-1.5l-.283-.513.54-.3,6.194,11.242-.541.3-.809-1.47a3.726,3.726,0,0,0-1.181-1.437,1.138,1.138,0,0,0-1.2,0,3.288,3.288,0,0,0-.832.72q-.443.507-1.525,1.989c-.04.058-.109.15-.209.277s-.19.256-.274.386l-.532.707,4.521,8.207,1.785-.17a4.369,4.369,0,0,0,1.651-.512,2.9,2.9,0,0,0,1.067-1.048,2.754,2.754,0,0,0,.435-1.441,3.021,3.021,0,0,0-.072-.836,5.15,5.15,0,0,0-.366-.909l.541-.3,4.344,7.889-.54.3a6.013,6.013,0,0,0-1.058-1.2,5.671,5.671,0,0,0-1.316-.748,12.757,12.757,0,0,0-5.864-.51Zm5.343-1.028,10.729-.959-4.239-7.693Z" transform="translate(-168.039 -269.532)" fill="#1d0aff"/>
      <path id="Path_88" data-name="Path 88" d="M182.494,450.12l1.331,4.787,5.962-1.657a3.537,3.537,0,0,0,2.8-4.95l-.174-.626.595-.165,3.741,13.449-.6.165-.161-.58a3.521,3.521,0,0,0-4.95-2.8l-12.4,3.448a3.505,3.505,0,0,0-2.8,4.951l.161.579-.564.157-4.593-16.513a23.759,23.759,0,0,1-.988-5.442,6.688,6.688,0,0,1,.786-3.554,5.162,5.162,0,0,1,1.266-1.477,4.632,4.632,0,0,1,1.675-.885,4.549,4.549,0,0,1,4.569,1.423,11.4,11.4,0,0,1,1.6,2.282,21.357,21.357,0,0,1,1.421,3.038q.426,1.178,1.113,3.649l.061-.017q.453-1.44.7-2.576a16.228,16.228,0,0,0,.322-2.241,20.851,20.851,0,0,0,.011-2.467l.622-.716q.592-.706.891-1.052t.682-.8q1.058-1.215,1.8-2.249a8.509,8.509,0,0,0,.98-1.644,5.329,5.329,0,0,0-.133-3.019l-.165-.595.595-.166,2.223,7.99Zm.768,4.944L181.573,449a10.427,10.427,0,0,0-1.508-3.383A4.19,4.19,0,0,0,177.891,444a5.306,5.306,0,0,0-2.956.09q-4.849,1.349-3.131,7.524l1.713,6.161Z" transform="translate(-165.75 -264.624)" fill="#1d0aff"/>
      <path id="Path_89" data-name="Path 89" d="M166.129,427.871l-1.045-25.9,11.212-.453.052.5a14.673,14.673,0,0,0-7.125,2.822,7.685,7.685,0,0,0-3.172,6.559l.046,1.155,16.874-.681q4.017-.163,3.855-4.164l-.135-3.337.617-.024.78,19.292-.617.026-.133-3.305q-.163-4.017-4.179-3.855l-16.874.681.058,1.424a7.446,7.446,0,0,0,3.96,6.27,13.75,13.75,0,0,0,4.408,1.675,24.1,24.1,0,0,0,2.61.307l.022.552Z" transform="translate(-165.084 -260.389)" fill="#1d0aff"/>
      <path id="Path_90" data-name="Path 90" d="M165.333,390.623l2.735-14.414a19.655,19.655,0,0,1,2.043-5.967,11.157,11.157,0,0,1,3.534-3.9,11.57,11.57,0,0,1,4.019-1.822,10.087,10.087,0,0,1,4.225-.108,9.677,9.677,0,0,1,4.049,1.752,10.064,10.064,0,0,1,2.85,3.32,12.732,12.732,0,0,1,1.4,4.528,16.915,16.915,0,0,1-.207,5.293l-2.93,15.44-.607-.114.151-.793a3.52,3.52,0,0,0-3.2-4.7l-12.642-2.4a3.5,3.5,0,0,0-4.7,3.2l-.15.793Zm2.346-9.221,20.541,3.9.8-4.2a19.715,19.715,0,0,0,.373-3.07,7.878,7.878,0,0,0-.248-2.3,5.684,5.684,0,0,0-.9-1.861q-2.137-3.081-7.6-4.116a17.567,17.567,0,0,0-3.443-.324,11.347,11.347,0,0,0-2.982.393,8.267,8.267,0,0,0-2.419,1.12,6.507,6.507,0,0,0-1.532,1.489,8.213,8.213,0,0,0-1.08,2.083,19.624,19.624,0,0,0-.774,2.97Z" transform="translate(-165.119 -255.187)" fill="#1d0aff"/>
      <path id="Path_91" data-name="Path 91" d="M174.08,350.046l6.156-13.317a19.676,19.676,0,0,1,3.432-5.292,11.146,11.146,0,0,1,4.375-2.921,11.551,11.551,0,0,1,4.342-.791,10.066,10.066,0,0,1,4.125.922,9.688,9.688,0,0,1,3.5,2.683,10.077,10.077,0,0,1,1.958,3.913,12.757,12.757,0,0,1,.262,4.733,16.916,16.916,0,0,1-1.487,5.084l-6.595,14.265-.56-.259.338-.732A3.52,3.52,0,0,0,191.966,353l-11.68-5.4a3.5,3.5,0,0,0-5.336,1.963l-.339.732Zm4.516-8.373,18.978,8.772,1.793-3.879a19.587,19.587,0,0,0,1.108-2.887,7.862,7.862,0,0,0,.32-2.294,5.727,5.727,0,0,0-.416-2.023q-1.326-3.508-6.368-5.838a17.572,17.572,0,0,0-3.26-1.15,11.355,11.355,0,0,0-2.988-.344,8.261,8.261,0,0,0-2.619.5,6.462,6.462,0,0,0-1.847,1.072,8.234,8.234,0,0,0-1.553,1.758,19.53,19.53,0,0,0-1.471,2.693Z" transform="translate(-166.339 -250.092)" fill="#1d0aff"/>
      <path id="Path_92" data-name="Path 92" d="M210.5,327.07l.359-.5a3.52,3.52,0,0,0-.934-5.608l-1.365-.975-1.159-.829-1.662-1.187-6.683-4.775a6.328,6.328,0,0,0-1.577-.651,2.55,2.55,0,0,0-1.292.04,4.186,4.186,0,0,0-2.339,1.83l-.36.5-.476-.341,8.1-11.332.477.341-.359.5a3.5,3.5,0,0,0,.943,5.595l10.469,7.481a3.518,3.518,0,0,0,5.6-.921l.359-.5.5.359-8.1,11.332Z" transform="translate(-168.982 -246.676)" fill="#1d0aff"/>
      <path id="Path_93" data-name="Path 93" d="M234.172,288.591l.394-.39a13.183,13.183,0,0,1,1.052,2.254,10.828,10.828,0,0,1,.471,2.274,10.5,10.5,0,0,1-3.321,8.859,13.114,13.114,0,0,1-5.595,3.326,12.443,12.443,0,0,1-6.29.262,10.324,10.324,0,0,1-7.36-5.942,11.79,11.79,0,0,1-.972-3.8,13.469,13.469,0,0,1,.254-4.05,10.759,10.759,0,0,1,3.08-5.459,11.4,11.4,0,0,1,1.674-1.38,7.962,7.962,0,0,1,1.817-.909,11.669,11.669,0,0,1,2.14-.505,3.406,3.406,0,0,0,1.648-.586q.8-.79.353-3.647l.393-.39,7.811,7.232-.371.368q-1-.631-1.691-.977a10.834,10.834,0,0,0-1.536-.617,15.686,15.686,0,0,0-4.529-.9,10.79,10.79,0,0,0-4.02.552,8.282,8.282,0,0,0-3.154,1.944,5.393,5.393,0,0,0-1.734,3.377,7.072,7.072,0,0,0,1.117,4.061,24.887,24.887,0,0,0,3.983,4.978,28.862,28.862,0,0,0,2.932,2.62,11.518,11.518,0,0,0,2.556,1.534,6.379,6.379,0,0,0,2.281.514,6.138,6.138,0,0,0,2.632-.57,8.292,8.292,0,0,0,2.426-1.7,10.392,10.392,0,0,0,1.739-2.258,9.461,9.461,0,0,0,1-2.587,10.265,10.265,0,0,0,.225-2.841,10.045,10.045,0,0,0-.387-2.212A15.51,15.51,0,0,0,234.172,288.591Z" transform="translate(-171.7 -243.224)" fill="#1d0aff"/>
      <path id="Path_94" data-name="Path 94" d="M232.5,270.668,254.345,256.7l6.044,9.454-.41.3a14.659,14.659,0,0,0-6.029-4.73,7.685,7.685,0,0,0-7.264.566l-.973.623,9.1,14.229q2.166,3.387,5.539,1.23l2.814-1.8.333.52-16.27,10.4-.332-.52,2.787-1.782q3.387-2.164,1.222-5.553l-9.1-14.229-1.2.768a7.445,7.445,0,0,0-3.419,6.582,13.764,13.764,0,0,0,.775,4.651,24.061,24.061,0,0,0,1.052,2.408l-.467.3Z" transform="translate(-174.491 -240.182)" fill="#1d0aff"/>
    </g>
  </g>
  <g id="Ellipse_37" data-name="Ellipse 37" transform="translate(38 37)" fill="none" stroke="#1d0aff" stroke-width="4">
    <circle cx="111" cy="111" r="111" stroke="none"/>
    <circle cx="111" cy="111" r="109" fill="none"/>
  </g>
  <g id="Group_340" data-name="Group 340" transform="translate(-219.179 -599.913)">
    <path id="Path_159" data-name="Path 159" d="M369.72,834.467a86.55,86.55,0,0,1-87.528-88.213c.8-47.128,40.376-84.979,88.239-84.333,47.119.635,85.247,40.243,84.3,88.2C453.8,797.643,415.059,833.741,369.72,834.467Zm79.566-86.37a80.8,80.8,0,0,0-161.6-.009c-.007,44.307,36.094,80.8,79.964,80.824C413.166,828.941,449.3,793.174,449.286,748.1Z" fill="#1d0aff"/>
    <path id="Path_160" data-name="Path 160" d="M368.306,823.621c-42.74-.537-75.766-34.337-75.2-76.958.552-41.205,34.9-74.527,76.151-73.889,41.958.65,75.354,34.625,74.756,76.054C443.415,790.594,409.46,824.138,368.306,823.621Zm-68.717-71.782-.988-.254a69.383,69.383,0,0,0,18.506,44.034c1.807-1.794,3.677-3.823,5.447-1.569.854,1.089-.151,3.634-.4,6.523a68.375,68.375,0,0,0,43.113,17.462l-.481-.883q1.768-2.152,3.536-4.3l4.765,5.142c15.62-.846,30.261-6.977,42.724-18.25l-1.2-.393q-.171-2.709-.344-5.418l6.643.621a67.855,67.855,0,0,0,17.466-43.161l-.9.452-4.244-3.515,5.136-4.691c-.867-15.679-7-30.307-18.325-42.723l-.347,1.194-5.393.386.556-6.759a68.162,68.162,0,0,0-43.141-17.385l.448.886-3.414,4.205-4.191-4.241.5-.877a69.1,69.1,0,0,0-44.008,18.467c1.614,1.848,3.947,3.587,1.62,5.443-1.092.871-3.65-.094-5.544-.227l-.2-1.086a68.835,68.835,0,0,0-18.3,43.974l.94-.446,4.2,3.847Z" fill="#1d0aff"/>
    <path id="Path_161" data-name="Path 161" d="M362.938,715.966c7.074,6.765,15.359,12.864,12.713,25.072,12.121-2.354,18.386,5.344,25.021,12.788,1.175-1.046,2.045-2.193,3.2-2.731.97-.452,2.862-.669,3.291-.139.677.837.582,2.388.576,3.636,0,.431-.7.877-1.1,1.286q-15,14.992-30.015,29.974c-.573.571-1.14,1.453-1.808,1.555-1.123.172-2.733.238-3.372-.408-.591-.6-.539-2.347-.117-3.3.534-1.2,1.729-2.117,2.8-3.334-6.954-6.682-15.273-12.623-12.663-24.928-12.169,2.362-18.529-5.608-25.146-12.963-1.22,1.15-2.01,2.363-3.108,2.8-1.072.422-2.941.524-3.573-.113s-.293-2.376-.154-3.607c.052-.461.724-.862,1.133-1.271q15-14.989,30.015-29.971c.491-.49.974-1.28,1.533-1.349,1.137-.142,2.744-.3,3.372.324s.672,2.373.268,3.333C365.292,713.81,364.068,714.7,362.938,715.966ZM339.88,739.1c2.32,2.131,4.795,3.951,6.692,6.248,3.113,3.77,7.052,4.891,11.68,4.872,7.027-.027,7.866,1.121,8.3,8.31.18,2.994.758,6.393,2.383,8.77,2.373,3.47,5.854,6.184,8.617,8.972l19.356-18.9a65.259,65.259,0,0,1-6.181-6.078c-3.3-4.184-7.64-5.256-12.619-5.2-6.085.072-7.335-1.429-7.654-7.528-.159-3.041-.325-6.57-1.9-8.936-2.493-3.739-6.177-6.684-9.228-9.832Z" fill="#1d0aff"/>
    <path id="Path_162" data-name="Path 162" d="M425.107,746.969c-.127,16.2-5.265,29.015-15.262,39.874a7.147,7.147,0,0,1-3.406,2.079c-.611.142-2.188-1.086-2.193-1.7a5.69,5.69,0,0,1,1.277-3.6c6.787-7.462,11.447-15.975,13.206-25.956q4.162-23.617-10.968-42.272c-.584-.72-1.183-1.431-1.818-2.107-1.46-1.553-3.306-3.222-.976-5.227,2.078-1.789,3.577.022,4.937,1.493C420.036,720.513,425,733.5,425.107,746.969Z" fill="#1d0aff"/>
    <path id="Path_163" data-name="Path 163" d="M311.062,748.279c1.069-14.663,5.806-27.366,15.543-38.143.31-.344.614-.694.935-1.028,1.375-1.435,3.133-2.768,4.616-.764.643.87.128,3.213-.632,4.387-2.382,3.674-5.539,6.882-7.669,10.678a50.8,50.8,0,0,0,6.958,59.3c.312.343.619.69.941,1.023,1.364,1.415,2.009,2.98.343,4.515-1.756,1.618-3.164.451-4.444-.884-5.446-5.674-9.87-12.089-12.146-19.607C313.581,761.4,312.511,754.782,311.062,748.279Z" fill="#1d0aff"/>
    <path id="Path_164" data-name="Path 164" d="M371.23,750.938c6.573,1.165,14.182-1.275,17.651,6.633l-10.945,11.183c-4.14-2.869-6.951-6.432-6.13-12.044C372.063,754.954,371.469,753.074,371.23,750.938Z" fill="#1d0aff"/>
    <path id="Path_165" data-name="Path 165" d="M348.121,738.277l10.821-10.786c4.222,2.849,6.987,6.354,6.262,11.94-.255,1.972.436,4.067.73,6.391C359.994,743.347,351.524,747.656,348.121,738.277Z" fill="#1d0aff"/>
  </g>
</svg>
